# Alias OBJ Model File
# Exported from SketchUp, (c) 2000-2012 Trimble Navigation Limited
# File units = feet

mtllib Sensorbox1.mtl

g Mesh1 SHT25_Temperature_and_Humidity___I2C Controller1 Sensorbox1 Model

usemtl FrontColor
v 6.26684 7.12969 -29.8102
vt -1.9416 1.9416
vn 0 -1 -0
v 6.10504 7.12969 -29.6484
vt 0 0
v 6.10504 7.12969 -29.8102
vt 0 1.9416
f 1/1/1 2/2/1 3/3/1

v 6.26684 7.12969 -29.6484
vt -1.9416 0
f 2/2/1 1/1/1 4/4/1

usemtl BackColor
vn -0 1 0
f 3/3/2 2/2/2 1/1/2

usemtl FrontColor
vn -1 0 -0
v 6.10504 7.16969 -29.8102
vt -1.9416 0.48
f 2/2/3 5/5/3 3/4/3

v 6.10504 7.16969 -29.6484
vt 0 0.48
f 5/5/3 2/2/3 6/6/3

usemtl BackColor
vn 1 -0 0
f 6/6/4 2/2/4 5/5/4

usemtl FrontColor
vn 0 0 1
v 6.26684 7.16969 -29.6484
vt 1.9416 0.48
f 2/2/5 7/7/5 6/6/5

vt 1.9416 0
f 7/7/5 2/2/5 4/8/5

usemtl BackColor
vn -0 -0 -1
f 4/8/6 2/2/6 7/7/6

f 4/4/2 1/1/2 2/2/2

usemtl FrontColor
vn 1 0 -0
f 1/8/7 7/6/7 4/2/7

v 6.26684 7.16969 -29.8102
f 7/6/7 1/8/7 8/7/7

usemtl BackColor
vn -1 -0 0
f 4/2/8 7/6/8 1/8/8

f 8/7/8 1/8/8 7/6/8

usemtl FrontColor
vn 0 0 -1
f 1/4/9 5/6/9 8/5/9

f 5/6/9 1/4/9 3/2/9

usemtl BackColor
vn -0 -0 1
f 3/2/10 1/4/10 5/6/10

f 8/5/10 5/6/10 1/4/10

usemtl FrontColor
vn 0 1 -0
vt 1.9416 1.9416
f 5/3/11 7/8/11 8/9/11

f 7/8/11 5/3/11 6/2/11

usemtl BackColor
vn -0 -1 0
f 6/2/12 5/3/12 7/8/12

f 8/9/12 7/8/12 5/3/12

f 6/6/6 7/7/6 2/2/6

f 3/4/4 5/5/4 2/2/4

g Mesh2 SHT25_Temperature_and_Humidity___I2C Controller1 Sensorbox1 Model

l 7 6

l 8 7

l 5 8

l 6 5

l 2 6

l 4 2

l 1 4

l 3 1

l 2 3

l 3 5

l 1 8

l 4 7

g Mesh3 Sensor_to_Analog_A0_Wireless_Bluetooth___Software_Serial_ Controller1 Sensorbox1 Model

usemtl FrontColor
v 6.06624 7.12969 -29.8102
v 5.90444 7.12969 -29.6484
v 5.90444 7.12969 -29.8102
f 9/1/1 10/2/1 11/3/1

v 6.06624 7.12969 -29.6484
f 10/2/1 9/1/1 12/4/1

usemtl BackColor
f 11/3/2 10/2/2 9/1/2

usemtl FrontColor
v 5.90444 7.16969 -29.8102
f 10/2/3 13/5/3 11/4/3

v 5.90444 7.16969 -29.6484
f 13/5/3 10/2/3 14/6/3

usemtl BackColor
f 14/6/4 10/2/4 13/5/4

usemtl FrontColor
v 6.06624 7.16969 -29.6484
f 10/2/5 15/7/5 14/6/5

f 15/7/5 10/2/5 12/8/5

usemtl BackColor
f 12/8/6 10/2/6 15/7/6

f 12/4/2 9/1/2 10/2/2

usemtl FrontColor
f 9/8/7 15/6/7 12/2/7

v 6.06624 7.16969 -29.8102
f 15/6/7 9/8/7 16/7/7

usemtl BackColor
f 12/2/8 15/6/8 9/8/8

f 16/7/8 9/8/8 15/6/8

usemtl FrontColor
f 9/4/9 13/6/9 16/5/9

f 13/6/9 9/4/9 11/2/9

usemtl BackColor
f 11/2/10 9/4/10 13/6/10

f 16/5/10 13/6/10 9/4/10

usemtl FrontColor
f 13/3/11 15/8/11 16/9/11

f 15/8/11 13/3/11 14/2/11

usemtl BackColor
f 14/2/12 13/3/12 15/8/12

f 16/9/12 15/8/12 13/3/12

f 14/6/6 15/7/6 10/2/6

f 11/4/4 13/5/4 10/2/4

g Mesh4 Sensor_to_Analog_A0_Wireless_Bluetooth___Software_Serial_ Controller1 Sensorbox1 Model

l 15 14

l 16 15

l 13 16

l 14 13

l 10 14

l 12 10

l 9 12

l 11 9

l 10 11

l 11 13

l 9 16

l 12 15

g Mesh5 Camera___CSI_Interface Controller1 Sensorbox1 Model

usemtl FrontColor
v 6.26684 7.12969 -30.0102
v 6.10504 7.12969 -29.8484
v 6.10504 7.12969 -30.0102
f 17/1/1 18/2/1 19/3/1

v 6.26684 7.12969 -29.8484
f 18/2/1 17/1/1 20/4/1

usemtl BackColor
f 19/3/2 18/2/2 17/1/2

usemtl FrontColor
v 6.10504 7.16969 -30.0102
f 18/2/3 21/5/3 19/4/3

v 6.10504 7.16969 -29.8484
f 21/5/3 18/2/3 22/6/3

usemtl BackColor
f 22/6/4 18/2/4 21/5/4

usemtl FrontColor
v 6.26684 7.16969 -29.8484
f 18/2/5 23/7/5 22/6/5

f 23/7/5 18/2/5 20/8/5

usemtl BackColor
f 20/8/6 18/2/6 23/7/6

f 20/4/2 17/1/2 18/2/2

usemtl FrontColor
f 17/8/7 23/6/7 20/2/7

v 6.26684 7.16969 -30.0102
f 23/6/7 17/8/7 24/7/7

usemtl BackColor
f 20/2/8 23/6/8 17/8/8

f 24/7/8 17/8/8 23/6/8

usemtl FrontColor
f 17/4/9 21/6/9 24/5/9

f 21/6/9 17/4/9 19/2/9

usemtl BackColor
f 19/2/10 17/4/10 21/6/10

f 24/5/10 21/6/10 17/4/10

usemtl FrontColor
f 21/3/11 23/8/11 24/9/11

f 23/8/11 21/3/11 22/2/11

usemtl BackColor
f 22/2/12 21/3/12 23/8/12

f 24/9/12 23/8/12 21/3/12

f 22/6/6 23/7/6 18/2/6

f 19/4/4 21/5/4 18/2/4

g Mesh6 Camera___CSI_Interface Controller1 Sensorbox1 Model

l 23 22

l 24 23

l 21 24

l 22 21

l 18 22

l 20 18

l 17 20

l 19 17

l 18 19

l 19 21

l 17 24

l 20 23

g Mesh7 Node_MCU___UART2 Controller1 Sensorbox1 Model

usemtl FrontColor
v 6.06624 7.12969 -30.0102
v 5.90444 7.12969 -29.8484
v 5.90444 7.12969 -30.0102
f 25/1/1 26/2/1 27/3/1

v 6.06624 7.12969 -29.8484
f 26/2/1 25/1/1 28/4/1

usemtl BackColor
f 27/3/2 26/2/2 25/1/2

usemtl FrontColor
v 5.90444 7.16969 -30.0102
f 26/2/3 29/5/3 27/4/3

v 5.90444 7.16969 -29.8484
f 29/5/3 26/2/3 30/6/3

usemtl BackColor
f 30/6/4 26/2/4 29/5/4

usemtl FrontColor
v 6.06624 7.16969 -29.8484
f 26/2/5 31/7/5 30/6/5

f 31/7/5 26/2/5 28/8/5

usemtl BackColor
f 28/8/6 26/2/6 31/7/6

f 28/4/2 25/1/2 26/2/2

usemtl FrontColor
f 25/8/7 31/6/7 28/2/7

v 6.06624 7.16969 -30.0102
f 31/6/7 25/8/7 32/7/7

usemtl BackColor
f 28/2/8 31/6/8 25/8/8

f 32/7/8 25/8/8 31/6/8

usemtl FrontColor
f 25/4/9 29/6/9 32/5/9

f 29/6/9 25/4/9 27/2/9

usemtl BackColor
f 27/2/10 25/4/10 29/6/10

f 32/5/10 29/6/10 25/4/10

usemtl FrontColor
f 29/3/11 31/8/11 32/9/11

f 31/8/11 29/3/11 30/2/11

usemtl BackColor
f 30/2/12 29/3/12 31/8/12

f 32/9/12 31/8/12 29/3/12

f 30/6/6 31/7/6 26/2/6

f 27/4/4 29/5/4 26/2/4

g Mesh8 Node_MCU___UART2 Controller1 Sensorbox1 Model

l 31 30

l 32 31

l 29 32

l 30 29

l 26 30

l 28 26

l 25 28

l 27 25

l 26 27

l 27 29

l 25 32

l 28 31

g Mesh9 Controller1 Sensorbox1 Model

usemtl FrontColor
vt -4.3488 4.3416
vt 0 4.3416
f 24/10/1 14/2/1 29/11/1

vt -4.3488 0
f 14/2/1 24/10/1 7/12/1

usemtl BackColor
f 29/11/2 14/2/2 24/10/2

usemtl FrontColor
v 5.90444 7.19299 -30.0102
vt -4.3416 0.2796
vt -4.3416 0
f 14/2/3 33/13/3 29/14/3

v 5.90444 7.19299 -29.6484
vt 0 0.2796
f 33/13/3 14/2/3 34/15/3

usemtl BackColor
f 34/15/4 14/2/4 33/13/4

usemtl FrontColor
v 6.26684 7.19299 -29.6484
vt 4.3488 0.2796
f 14/2/5 35/16/5 34/15/5

vt 4.3488 0
f 35/16/5 14/2/5 7/17/5

usemtl BackColor
f 7/17/6 14/2/6 35/16/6

f 7/12/2 24/10/2 14/2/2

usemtl FrontColor
vt 4.3416 0
f 24/18/7 35/15/7 7/2/7

v 6.26684 7.19299 -30.0102
vt 4.3416 0.2796
f 35/15/7 24/18/7 36/19/7

usemtl BackColor
f 7/2/8 35/15/8 24/18/8

f 36/19/8 24/18/8 35/15/8

usemtl FrontColor
vt -4.3488 0.2796
f 24/12/9 33/15/9 36/20/9

f 33/15/9 24/12/9 29/2/9

usemtl BackColor
f 29/2/10 24/12/10 33/15/10

f 36/20/10 33/15/10 24/12/10

usemtl FrontColor
vt 4.3488 4.3416
f 33/11/11 35/17/11 36/21/11

f 35/17/11 33/11/11 34/2/11

usemtl BackColor
f 34/2/12 33/11/12 35/17/12

f 36/21/12 35/17/12 33/11/12

f 34/15/6 35/16/6 14/2/6

f 29/14/4 33/13/4 14/2/4

g Mesh10 Controller1 Sensorbox1 Model

l 7 14

l 24 7

l 29 24

l 14 29

l 14 34

l 35 34

l 36 35

l 24 36

l 33 36

l 29 33

l 34 33

l 7 35

g Mesh11 Sensorbox1 Model

usemtl FrontColor
v 6.59787 7.26059 -29.274
vt 12 0
v 5.59787 7.26059 -30.274
vt 0 12
v 5.59787 7.26059 -29.274
f 37/22/11 38/23/11 39/2/11

v 6.59787 7.26059 -30.274
vt 12 12
f 38/23/11 37/22/11 40/24/11

usemtl BackColor
f 39/2/12 38/23/12 37/22/12

usemtl FrontColor
vt -12 4.008
vn -1 -3.93304e-15 -0
v 5.59787 6.95949 -29.274
vt 0 0.3948
vt 0 4.008
f 38/25/13 41/26/13 39/27/13

v 5.59787 6.95949 -30.274
vt -12 0.3948
f 41/26/13 38/25/13 42/28/13

usemtl BackColor
vn 1 3.93304e-15 0
f 39/27/14 41/26/14 38/25/14

usemtl FrontColor
vt 1.42109e-14 0.3948
vt 12 4.008
f 41/29/5 37/30/5 39/27/5

v 6.59787 6.95949 -29.274
vt 12 0.3948
f 37/30/5 41/29/5 43/31/5

usemtl BackColor
f 43/31/6 41/29/6 37/30/6

usemtl FrontColor
vt -1.41643e-14 0
vn -1.17961e-16 -1 -0
v 5.63294 6.95949 -29.3091
vt -0.420786 0.420786
vt -12 0
f 41/32/15 44/33/15 43/34/15

v 5.63294 6.95949 -30.2389
vt -0.420786 11.5792
f 44/33/15 41/32/15 45/35/15

usemtl BackColor
vn 1.17961e-16 1 0
f 43/34/16 44/33/16 41/32/16

usemtl FrontColor
v 6.56281 6.95949 -29.3091
vt -11.5792 0.420786
f 43/34/15 44/33/15 46/36/15

usemtl BackColor
f 46/36/16 44/33/16 43/34/16

usemtl FrontColor
vt -0.420786 0.3948
v 6.56281 7.22439 -29.3091
vt -11.5792 3.5736
vt -11.5792 0.3948
f 44/37/9 47/38/9 46/39/9

v 5.63294 7.22439 -29.3091
vt -0.420786 3.5736
f 47/38/9 44/37/9 48/40/9

usemtl BackColor
f 46/39/10 47/38/10 44/37/10

usemtl FrontColor
v 6.56281 7.22439 -30.2389
vn -1 8.94102e-15 5.74016e-30
f 49/38/17 46/37/17 47/40/17

v 6.56281 6.95949 -30.2389
f 46/37/17 49/38/17 50/39/17

usemtl BackColor
vn 1 -8.94102e-15 -5.74016e-30
f 47/40/18 46/37/18 49/38/18

f 50/39/18 49/38/18 46/37/18

usemtl FrontColor
vt 11.5792 3.5736
vt 0.420786 0.3948
vt 11.5792 0.3948
f 49/41/5 45/42/5 50/43/5

v 5.63294 7.22439 -30.2389
vt 0.420786 3.5736
f 45/42/5 49/41/5 51/44/5

usemtl BackColor
f 50/43/6 45/42/6 49/41/6

usemtl FrontColor
v 5.63294 6.92659 -30.2389
vt -0.420786 1.42109e-14
f 50/39/9 52/45/9 45/37/9

v 6.56281 6.92659 -30.2389
vt -11.5792 0
f 52/45/9 50/39/9 53/46/9

usemtl BackColor
f 53/46/10 50/39/10 52/45/10

usemtl FrontColor
vn 1 3.59951e-14 -0
vt 11.5792 -4.16795e-13
f 46/42/19 53/47/19 50/43/19

v 6.56281 6.92659 -29.3091
vt 0.420786 -4.16795e-13
f 53/47/19 46/42/19 54/48/19

usemtl BackColor
vn -1 -3.59951e-14 0
f 54/48/20 46/42/20 53/47/20

usemtl FrontColor
v 5.63294 6.92659 -29.3091
vt 0.420786 1.42109e-14
vt 11.5792 0
f 46/43/5 55/49/5 54/50/5

f 55/49/5 46/43/5 44/42/5

usemtl BackColor
f 54/50/6 55/49/6 46/43/6

usemtl FrontColor
vn -1.27355e-15 -1 -0
vt -11.5792 11.5792
f 55/33/21 53/51/21 54/36/21

f 53/51/21 55/33/21 52/35/21

usemtl BackColor
vn 1.27355e-15 1 0
f 52/35/22 55/33/22 53/51/22

usemtl FrontColor
vt -0.420786 -3.12279e-14
vn -1 -1.07985e-13 -0
vt -11.5792 -3.12279e-14
f 55/52/23 45/39/23 52/53/23

f 45/39/23 55/52/23 44/37/23

usemtl BackColor
vn 1 1.07985e-13 0
f 44/37/24 55/52/24 45/39/24

f 44/42/6 46/43/6 55/49/6

f 52/53/24 45/39/24 55/52/24

f 45/37/10 52/45/10 50/39/10

usemtl FrontColor
v 6.59787 6.95949 -30.274
vt -12 12
f 45/35/15 56/54/15 50/51/15

vt -1.41643e-14 12
f 45/35/15 42/55/15 56/54/15

f 42/55/15 45/35/15 41/32/15

usemtl BackColor
f 41/32/16 45/35/16 42/55/16

f 45/35/16 41/32/16 44/33/16

usemtl FrontColor
vn 1 -8.94102e-15 -0
f 45/43/25 48/44/25 44/42/25

f 48/44/25 45/43/25 51/41/25

usemtl BackColor
vn -1 8.94102e-15 0
f 44/42/26 48/44/26 45/43/26

f 48/40/10 44/37/10 47/38/10

usemtl FrontColor
vn 6.36777e-16 -1 -6.36777e-16
f 48/33/27 49/51/27 47/36/27

f 49/51/27 48/33/27 51/35/27

usemtl BackColor
vn -6.36777e-16 1 6.36777e-16
f 51/35/28 48/33/28 49/51/28

f 51/41/26 45/43/26 48/44/26

f 51/44/6 49/41/6 45/42/6

f 47/36/28 49/51/28 48/33/28

f 56/54/16 42/55/16 45/35/16

usemtl FrontColor
vt -1.42109e-14 0.3948
f 38/27/9 56/28/9 42/56/9

f 56/28/9 38/27/9 40/25/9

usemtl BackColor
f 42/56/10 56/28/10 38/27/10

f 40/25/10 38/27/10 56/28/10

f 40/24/12 37/22/12 38/23/12

usemtl FrontColor
f 37/27/7 56/31/7 40/30/7

f 56/31/7 37/27/7 43/26/7

usemtl BackColor
f 43/26/8 37/27/8 56/31/8

f 40/30/8 56/31/8 37/27/8

usemtl FrontColor
f 43/34/15 46/36/15 56/54/15

usemtl BackColor
f 56/54/16 46/36/16 43/34/16

usemtl FrontColor
f 50/51/15 56/54/15 46/36/15

usemtl BackColor
f 50/51/16 56/54/16 45/35/16

f 46/36/16 56/54/16 50/51/16

f 50/43/20 53/47/20 46/42/20

f 42/28/14 38/25/14 41/26/14

f 54/36/22 53/51/22 55/33/22

f 39/27/6 37/30/6 41/29/6

g Mesh12 Sensorbox1 Model

l 54 55

l 53 54

l 52 53

l 45 52

l 44 45

l 46 44

l 46 47

l 50 46

l 45 50

l 45 51

l 48 51

l 44 48

l 44 55

l 55 52

l 47 48

l 49 47

l 51 49

l 50 49

l 50 53

l 46 54

g Mesh13 Sensorbox1 Model

l 40 38

l 37 40

l 39 37

l 38 39

l 38 42

l 56 42

l 40 56

l 43 56

l 41 43

l 42 41

l 39 41

l 37 43

